<svg width="41" height="39" viewBox="0 0 41 39" fill="none" xmlns="http://www.w3.org/2000/svg">
<path id="Vector" d="M6.29579 0.296631C7.24388 0.359661 8.26682 0.682274 9.09016 1.15002C9.53094 0.746963 10.2129 0.277556 10.6953 0.643295C11.7348 1.42785 10.8949 2.36501 10.1297 2.96047C9.67232 5.93449 8.4082 10.6874 10.9448 11.749C14.9284 13.2501 15.6436 1.06211 21.249 1.21139C24.6089 1.30096 23.1286 6.15841 26.4552 6.32428C28.9086 6.44951 28.7256 1.80354 30.7715 1.73305C32.9255 1.65841 34.4824 3.3005 35.571 8.94583C37.7026 8.93753 38.5426 10.6128 39.5148 13.8555C40.4866 17.09 39.7643 23.4427 39.415 27.324L38.7605 20.9961C38.5584 21.9914 38.2457 22.9949 37.7699 24.0398C37.4448 25.5907 37.3175 27.1416 37.2868 28.6841C37.9687 29.5301 38.0186 30.857 37.3217 31.6283C37.3982 33.8509 37.5437 36.0653 37.4614 38.2879C34.5938 38.3294 31.9691 38.205 29.1831 38.2879C29.0334 37.301 30.4222 36.5961 32.0357 35.775C32.0107 34.6388 32.019 33.2455 32.0357 31.8356C31.3038 30.9897 31.2872 29.5052 32.0523 28.7837C32.044 27.0172 31.9858 25.5824 31.7778 25.1429C31.1125 23.7247 30.0646 22.4973 29.3577 21.2284C26.9708 21.6679 24.3927 21.4689 21.7148 20.8386L21.6565 27.9294C22.2969 28.8666 22.3219 30.2267 21.6316 31.0643C21.2407 33.4694 21.5817 35.8828 21.5651 38.2879H16.7414C16.5501 37.0439 18.6127 36.3721 19.619 35.7916C19.619 33.9587 19.9433 32.5737 19.6522 30.7907C19.2364 29.9696 19.2115 29.0076 19.619 28.2363C19.5441 25.4995 19.3445 22.7626 18.7291 20.0258C18.596 19.9761 18.0721 19.719 17.9557 19.5863L17.0491 27.747C17.5149 28.7339 17.4151 30.0111 16.7165 30.7907C16.1676 33.287 16.3422 35.7252 16.0595 38.2216L10.9697 38.2879C10.9448 37.2678 13.3898 36.6292 14.3213 36.1731C14.8536 34.3983 14.7953 32.5986 14.8785 30.7907C14.2132 29.7872 14.2465 28.3939 14.97 27.5148C14.9284 24.3384 14.5126 21.1454 13.4397 18.0105C4.57425 17.5212 5.43917 12.0393 5.18136 6.9637C5.06493 4.70458 0.565648 7.10469 0.191402 6.00084C-0.00819675 5.42693 -0.107996 4.84888 0.191402 4.18956C0.906629 2.58976 2.17907 2.50434 3.24359 2.47863C4.26654 1.86823 5.12314 0.325658 6.19599 0.296631H6.29579ZM5.73857 1.92048C5.33106 2.13943 5.42254 2.54 5.51402 2.75894C6.06292 2.92149 6.86963 2.66938 7.24388 2.37828C6.91953 2.1303 6.22925 1.93126 5.73857 1.92048ZM34.5888 23.1358C34.3352 23.7827 34.1115 24.4296 33.9776 25.0599C33.7098 26.3288 33.5692 27.606 33.5019 28.8915C34.124 29.7457 34.1489 31.0561 33.4528 31.7942C33.4736 33.5855 33.5609 35.3769 33.5792 37.16C33.9568 36.538 34.6537 35.9989 35.6534 35.7418C35.6401 34.5476 35.69 33.0548 35.7432 31.5454C35.1685 30.6994 35.1602 29.4223 35.8355 28.7007C35.8912 26.4615 35.8638 24.6038 35.5211 24.214C35.1926 23.8408 34.8833 23.4842 34.5888 23.1358Z" fill="black"/>
</svg>
