<svg width="40" height="29" viewBox="0 0 40 29" fill="none" xmlns="http://www.w3.org/2000/svg">
<path id="Vaca" fill-rule="evenodd" clip-rule="evenodd" d="M17.8149 19.2967H22.8149C22.8149 19.6897 22.8699 20.0727 22.9729 20.4397C22.8636 20.4842 22.7641 20.5499 22.6802 20.6329C22.5963 20.716 22.5295 20.8148 22.4838 20.9236C22.4382 21.0325 22.4144 21.1493 22.4139 21.2673C22.4133 21.3854 22.4361 21.5024 22.4809 21.6117L22.5199 21.7057C22.6203 21.9511 22.8141 22.1466 23.0586 22.2492C23.3031 22.3518 23.5784 22.353 23.8239 22.2527L23.9359 22.2067C24.2819 22.6087 24.6969 22.9667 25.1679 23.2667C24.9069 23.7537 25.0859 24.3667 25.5719 24.6287C25.8055 24.7541 26.0795 24.7816 26.3334 24.7051C26.5873 24.6285 26.8004 24.4543 26.9259 24.2207L27.0099 24.0667C27.6698 24.239 28.3511 24.3154 29.0329 24.2937L29.0589 24.4287C29.1093 24.6891 29.2611 24.9189 29.4809 25.0674C29.7006 25.2159 29.9704 25.271 30.2309 25.2207C30.4913 25.1703 30.7211 25.0185 30.8696 24.7987C31.0181 24.5789 31.0733 24.3091 31.0229 24.0487L31.0039 23.9537C31.8748 23.6762 32.6726 23.2074 33.3389 22.5817L33.6489 26.3107C33.4017 26.3524 33.1793 26.4855 33.0256 26.6836C32.8719 26.8816 32.7982 27.1301 32.8191 27.3799C32.84 27.6297 32.9539 27.8626 33.1383 28.0324C33.3228 28.2021 33.5642 28.2965 33.8149 28.2967H36.8149V10.2967C36.8196 8.93909 36.3729 7.61849 35.5449 6.54265C36.1699 6.71065 36.6069 6.95565 36.9149 7.25265C37.4719 7.78765 37.8149 8.68865 37.8149 10.2967L38.2019 15.7167C37.9669 16.0817 37.8149 16.6537 37.8149 17.2967C37.8149 18.4017 38.2629 19.2967 38.8149 19.2967C39.3669 19.2967 39.8149 18.4017 39.8149 17.2967C39.8149 16.6537 39.6629 16.0817 39.4279 15.7167L39.8149 10.2967C39.8149 8.46265 39.4319 6.89665 38.3009 5.80965C37.1839 4.73665 35.5449 4.33265 33.5279 4.29865C33.4519 4.29665 31.3709 4.29665 31.3149 4.29665V4.30365C31.2223 4.29905 31.1296 4.29672 31.0369 4.29665H16.3149C14.3809 4.29665 12.9199 4.00865 11.6949 3.62865L11.5419 3.42265C12.2119 3.25265 12.8869 2.98065 13.3719 2.62265C14.6419 1.68865 15.3789 -0.190349 13.7539 0.0156512C13.2809 0.0756512 12.9399 0.087651 12.6609 0.097651C11.9829 0.120651 11.6809 0.131652 10.7809 0.794652C10.4373 1.04567 10.1188 1.32932 9.82988 1.64165C8.43088 0.601652 6.56888 0.136651 3.31488 0.296651C3.18227 0.296651 3.0551 0.349329 2.96133 0.443098C2.86756 0.536866 2.81488 0.664043 2.81488 0.796651C2.81488 0.92926 2.86756 1.05644 2.96133 1.15021C3.0551 1.24397 3.18227 1.29665 3.31488 1.29665H5.05188C5.33788 1.48065 5.58188 1.65265 5.79888 1.81665L2.21488 6.29665H2.00288C1.69103 6.29658 1.38349 6.36944 1.10481 6.5094C0.826137 6.64936 0.584052 6.85255 0.397892 7.10274C0.211733 7.35293 0.0866571 7.64318 0.0326558 7.95032C-0.0213454 8.25746 -0.00277615 8.57297 0.0868803 8.87165L0.386881 9.87165C0.510546 10.2836 0.763737 10.6448 1.10888 10.9015C1.45403 11.1582 1.87274 11.2967 2.30288 11.2967H5.66488C6.0875 11.2969 6.49919 11.4309 6.84088 11.6797L9.03088 13.2717C9.09688 13.3197 9.16488 13.3637 9.23388 13.4017C10.8009 17.4417 12.4539 20.5877 14.3039 22.1707L14.6489 26.3107C14.4017 26.3524 14.1793 26.4855 14.0256 26.6836C13.8719 26.8816 13.7982 27.1301 13.8191 27.3799C13.84 27.6297 13.9539 27.8626 14.1383 28.0324C14.3228 28.2021 14.5642 28.2965 14.8149 28.2967H17.8149V19.2967ZM27.6249 19.2967H24.8149C24.8149 20.6267 26.2489 22.2967 28.8149 22.2967C29.7659 22.2967 30.5619 22.0667 31.1869 21.7107C29.7569 21.1407 28.6489 20.2927 27.6259 19.2967H27.6249Z" fill="black"/>
</svg>
