<svg width="37" height="35" viewBox="0 0 37 35" fill="none" xmlns="http://www.w3.org/2000/svg">
<path id="Burro" d="M34.7487 17.3379L35.8517 19.1529C36.1277 19.6099 36.0147 20.2209 35.6037 20.5299C34.9347 20.7379 33.9857 21.3279 33.5007 20.5239C32.2737 18.5059 31.5147 17.9989 30.6027 17.2459L32.8587 27.2709L30.6027 34.2959H25.5027C25.5027 31.9009 27.0107 32.5599 27.1787 32.4779L27.1927 32.4629C27.7027 30.7259 30.6027 31.2959 29.0367 27.2709C29.1497 26.1309 27.1927 26.2959 26.6027 24.6059C26.0127 22.9159 23.0577 25.9629 21.8547 26.2959C19.5027 27.7959 17.1607 28.0289 14.9747 25.6059C13.7507 26.6389 14.2947 28.5099 14.4027 31.2959C14.4687 32.9979 13.9737 34.2959 13.9737 34.2959H9.00274C9.00274 31.7959 10.8027 32.4629 10.8027 32.4629L11.8027 29.7559L10.8027 23.0489L8.00274 15.2129L5.62175 18.5169C5.46225 18.6971 5.26672 18.8418 5.04778 18.9417C4.82885 19.0416 4.59139 19.0945 4.35074 19.0969H2.60675C1.92674 19.0969 1.30174 18.6719 0.996745 18.0049L0.192745 16.2389C0.0429007 15.9082 -0.0201271 15.5447 0.00961946 15.1828C0.039366 14.821 0.160904 14.4727 0.362745 14.1709L4.55874 8.04087C4.65374 7.89887 4.79475 7.81287 4.91875 7.70787C4.69375 7.57187 4.46874 7.44787 4.28274 7.24487C3.36074 6.23187 3.24775 1.66487 3.93975 0.515867C3.97337 0.456067 4.02082 0.405182 4.07812 0.367461C4.13543 0.329739 4.20093 0.306277 4.26915 0.299034C4.33737 0.291791 4.40634 0.300977 4.47029 0.325825C4.53424 0.350673 4.59131 0.390461 4.63674 0.441867C7.08574 3.12187 7.00274 7.70787 9.83474 8.15787L14.4027 13.1709H27.6557C30.5137 13.1709 33.1627 14.7269 34.7487 17.3379Z" fill="black"/>
</svg>
