<svg width="19" height="20" viewBox="0 0 19 20" fill="none" xmlns="http://www.w3.org/2000/svg">
<path id="Vector" d="M0 15.4612V18.5012C0 18.7812 0.22 19.0012 0.5 19.0012H3.54C3.67 19.0012 3.8 18.9512 3.89 18.8512L14.81 7.94122L11.06 4.19122L0.15 15.1012C0.0500001 15.2012 0 15.3212 0 15.4612ZM17.71 5.04122C17.8027 4.94871 17.8763 4.83882 17.9264 4.71785C17.9766 4.59687 18.0024 4.46719 18.0024 4.33622C18.0024 4.20525 17.9766 4.07557 17.9264 3.9546C17.8763 3.83363 17.8027 3.72374 17.71 3.63122L15.37 1.29122C15.2775 1.19852 15.1676 1.12497 15.0466 1.07479C14.9257 1.02461 14.796 0.998779 14.665 0.998779C14.534 0.998779 14.4043 1.02461 14.2834 1.07479C14.1624 1.12497 14.0525 1.19852 13.96 1.29122L12.13 3.12122L15.88 6.87122L17.71 5.04122Z" fill="black"/>
</svg>
