<svg width="25" height="39" viewBox="0 0 25 39" fill="none" xmlns="http://www.w3.org/2000/svg">
<path id="Vector" d="M20.4869 20.7804C22.7517 18.5156 24.0024 15.4987 24.0024 12.2959C24.0024 9.08886 22.756 6.07618 20.4869 3.81139C18.2222 1.5466 15.2053 0.295898 12.0024 0.295898C8.79962 0.295898 5.78272 1.54238 3.51793 3.81139C1.25315 6.08041 0.00244141 9.08886 0.00244141 12.2959C0.00244141 14.9917 0.88554 17.5523 2.5123 19.6438C2.82075 20.041 3.15455 20.417 3.51371 20.7804C3.87286 21.1396 4.25315 21.4734 4.6461 21.7818C6.31934 23.0832 8.29258 23.9114 10.3968 24.1903V28.6903H5.57991C5.39399 28.6903 5.24188 28.8424 5.24188 29.0283V31.5635C5.24188 31.7494 5.39399 31.9016 5.57991 31.9016H10.3968V37.8171C10.3968 38.003 10.5489 38.1551 10.7348 38.1551H13.27C13.456 38.1551 13.6081 38.003 13.6081 37.8171V31.9016H18.425C18.6109 31.9016 18.763 31.7494 18.763 31.5635V29.0283C18.763 28.8424 18.6109 28.6903 18.425 28.6903H13.6081V24.1903C16.2067 23.8438 18.6024 22.6649 20.4869 20.7804ZM12.0024 21.0846C9.65315 21.0846 7.45174 20.172 5.78695 18.5114C4.12638 16.8508 3.21371 14.6452 3.21371 12.2959C3.21371 9.94661 4.12638 7.7452 5.78695 6.08041C7.44751 4.41562 9.65315 3.50717 12.0024 3.50717C14.3517 3.50717 16.5531 4.41985 18.2179 6.08041C19.8785 7.74097 20.7912 9.94661 20.7912 12.2959C20.7912 14.6452 19.8785 16.8466 18.2179 18.5114C16.5531 20.172 14.3517 21.0846 12.0024 21.0846Z" fill="black"/>
</svg>
