<svg width="43" height="44" viewBox="0 0 43 44" fill="none" xmlns="http://www.w3.org/2000/svg">
<g id="ep:male">
<path id="Vector" d="M16.7761 35.8284C19.282 35.8284 21.6851 34.8329 23.457 33.061C25.2289 31.2892 26.2244 28.886 26.2244 26.3801C26.2244 23.8743 25.2289 21.4711 23.457 19.6992C21.6851 17.9273 19.282 16.9319 16.7761 16.9319C14.2703 16.9319 11.8671 17.9273 10.0952 19.6992C8.32332 21.4711 7.32788 23.8743 7.32788 26.3801C7.32788 28.886 8.32332 31.2892 10.0952 33.061C11.8671 34.8329 14.2703 35.8284 16.7761 35.8284ZM16.7761 38.1904C13.6438 38.1904 10.6398 36.9461 8.42498 34.7313C6.21012 32.5164 4.96582 29.5124 4.96582 26.3801C4.96582 23.2478 6.21012 20.2438 8.42498 18.029C10.6398 15.8141 13.6438 14.5698 16.7761 14.5698C19.9084 14.5698 22.9124 15.8141 25.1273 18.029C27.3421 20.2438 28.5864 23.2478 28.5864 26.3801C28.5864 29.5124 27.3421 32.5164 25.1273 34.7313C22.9124 36.9461 19.9084 38.1904 16.7761 38.1904ZM27.4054 5.12158H36.8536C37.641 5.12158 38.0347 5.51526 38.0347 6.30261C38.0347 7.08997 37.641 7.48364 36.8536 7.48364H27.4054C26.618 7.48364 26.2244 7.08997 26.2244 6.30261C26.2244 5.51526 26.618 5.12158 27.4054 5.12158Z" fill="black"/>
<path id="Vector_2" d="M16.7761 35.8284C19.282 35.8284 21.6851 34.8329 23.457 33.061C25.2289 31.2892 26.2244 28.886 26.2244 26.3801C26.2244 23.8743 25.2289 21.4711 23.457 19.6992C21.6851 17.9273 19.282 16.9319 16.7761 16.9319C14.2703 16.9319 11.8671 17.9273 10.0952 19.6992C8.32332 21.4711 7.32788 23.8743 7.32788 26.3801C7.32788 28.886 8.32332 31.2892 10.0952 33.061C11.8671 34.8329 14.2703 35.8284 16.7761 35.8284ZM16.7761 38.1904C13.6438 38.1904 10.6398 36.9461 8.42498 34.7313C6.21012 32.5164 4.96582 29.5124 4.96582 26.3801C4.96582 23.2478 6.21012 20.2438 8.42498 18.029C10.6398 15.8141 13.6438 14.5698 16.7761 14.5698C19.9084 14.5698 22.9124 15.8141 25.1273 18.029C27.3421 20.2438 28.5864 23.2478 28.5864 26.3801C28.5864 29.5124 27.3421 32.5164 25.1273 34.7313C22.9124 36.9461 19.9084 38.1904 16.7761 38.1904ZM27.4054 5.12158H36.8536C37.641 5.12158 38.0347 5.51526 38.0347 6.30261C38.0347 7.08997 37.641 7.48364 36.8536 7.48364H27.4054C26.618 7.48364 26.2244 7.08997 26.2244 6.30261C26.2244 5.51526 26.618 5.12158 27.4054 5.12158Z" fill="black"/>
<path id="Vector_3" d="M36.8534 5.12158C37.6407 5.12158 38.0344 5.51526 38.0344 6.30261V15.7509C38.0344 16.5382 37.6407 16.9319 36.8534 16.9319C36.066 16.9319 35.6724 16.5382 35.6724 15.7509V6.30261C35.6724 5.51526 36.066 5.12158 36.8534 5.12158Z" fill="black"/>
<path id="Vector_4" d="M25.3976 19.4263L23.73 17.7563L36.0174 5.46655L37.6898 7.13885L25.3976 19.4263Z" fill="black"/>
</g>
</svg>
